HIERARCHY
ROOT Hips
{
	OFFSET 15.585500 22.159004 44.358299
	CHANNELS 6 Xposition Yposition Zposition Zrotation Xrotation Yrotation
	JOINT Chest
	{
		OFFSET -0.128500 0.160400 6.566002
		CHANNELS 6 Xposition Yposition Zposition Zrotation Xrotation Yrotation
		JOINT Chest2
		{
			OFFSET 0.000000 0.000000 3.554802
			CHANNELS 6 Xposition Yposition Zposition Zrotation Xrotation Yrotation
			JOINT Neck
			{
				OFFSET 0.000000 0.000000 8.267998
				CHANNELS 6 Xposition Yposition Zposition Zrotation Xrotation Yrotation
				JOINT Head
				{
					OFFSET 0.000000 0.000002 2.173897
					CHANNELS 6 Xposition Yposition Zposition Zrotation Xrotation Yrotation
					End Site
					{
						OFFSET 0.000000 0.000000 7.718697
					}
				}
			}
			JOINT LeftCollar
			{
				OFFSET 2.057500 0.117599 5.946301
				CHANNELS 6 Xposition Yposition Zposition Zrotation Xrotation Yrotation
				JOINT LeftShoulder
				{
					OFFSET 4.957699 0.000000 0.000000
					CHANNELS 6 Xposition Yposition Zposition Zrotation Xrotation Yrotation
					JOINT LeftElbow
					{
						OFFSET 0.000000 0.000000 -8.465500
						CHANNELS 6 Xposition Yposition Zposition Zrotation Xrotation Yrotation
						JOINT LeftWrist
						{
							OFFSET 0.000000 -0.000002 -14.594898
							CHANNELS 6 Xposition Yposition Zposition Zrotation Xrotation Yrotation
							End Site
							{
								OFFSET 0.000000 0.000000 -2.173901
							}
						}
					}
				}
			}
			JOINT RightCollar
			{
				OFFSET -3.048500 -0.728800 6.604099
				CHANNELS 6 Xposition Yposition Zposition Zrotation Xrotation Yrotation
				JOINT RightShoulder
				{
					OFFSET -3.710299 0.000000 0.000000
					CHANNELS 6 Xposition Yposition Zposition Zrotation Xrotation Yrotation
					JOINT RightElbow
					{
						OFFSET 0.000000 0.000000 -10.450901
						CHANNELS 6 Xposition Yposition Zposition Zrotation Xrotation Yrotation
						JOINT RightWrist
						{
							OFFSET 0.000000 0.000000 -12.539200
							CHANNELS 6 Xposition Yposition Zposition Zrotation Xrotation Yrotation
							End Site
							{
								OFFSET 0.000000 -0.000002 -2.173901
							}
						}
					}
				}
			}
		}
	}
	JOINT LeftHip
	{
		OFFSET 2.442599 -0.601400 -2.767502
		CHANNELS 6 Xposition Yposition Zposition Zrotation Xrotation Yrotation
		JOINT LeftKnee
		{
			OFFSET 0.000000 -0.000002 -17.033703
			CHANNELS 6 Xposition Yposition Zposition Zrotation Xrotation Yrotation
			JOINT LeftAnkle
			{
				OFFSET 0.000000 -0.000002 -19.318800
				CHANNELS 6 Xposition Yposition Zposition Zrotation Xrotation Yrotation
				End Site
				{
					OFFSET 0.000000 -8.281900 0.000000
				}
			}
		}
	}
	JOINT RightHip
	{
		OFFSET -3.126200 -0.601400 -2.283501
		CHANNELS 6 Xposition Yposition Zposition Zrotation Xrotation Yrotation
		JOINT RightKnee
		{
			OFFSET 0.000000 -0.000002 -16.919401
			CHANNELS 6 Xposition Yposition Zposition Zrotation Xrotation Yrotation
			JOINT RightAnkle
			{
				OFFSET 0.000000 -0.000002 -18.035900
				CHANNELS 6 Xposition Yposition Zposition Zrotation Xrotation Yrotation
				End Site
				{
					OFFSET 0.000000 -9.230099 0.000000
				}
			}
		}
	}
}
MOTION
Frames: 7
Frame Time: 0.041667
23.632700 38.124702 8.118496 2.888820 6.654337 0.337489 -0.128500 0.160399 6.566001 -4.393240 5.389027 14.419684 0.000001 0.000007 3.554810 2.255533 -8.568052 0.056249 0.000007 -0.000004 8.268002 3.870620 -3.860681 14.672493 0.000002 0.000004 2.173901 -0.282327 0.402385 -1.431701 2.057506 0.117596 5.946303 -16.742189 -4.579524 14.892526 4.957698 0.000002 0.000009 -19.068280 -13.771568 -88.933537 -0.000005 -0.000000 -8.465500 -68.832795 -199.623835 -92.664739 0.000003 -0.000001 -14.594894 -593.094613 53.147502 -323.541253 -3.048498 -0.728805 6.604099 34.664330 5.678238 3.933925 -3.710294 -0.000006 0.000006 45.070209 -13.937601 67.111977 0.000000 0.000009 -10.450899 218.796709 -81.239909 198.100799 0.000007 -0.000002 -12.539196 391.119609 169.555840 -269.190760 2.442592 -0.601403 -2.767503 133.637678 -12.284818 97.716525 -0.000003 -0.000004 -17.033709 -163.089126 46.530916 173.212163 -0.000002 -0.000001 -19.318802 -139.020619 123.078547 395.110488 -3.126199 -0.601409 -2.283504 -133.451747 -22.128650 -104.108660 -0.000004 -0.000003 -16.919394 319.186898 -60.626952 -209.244812 0.000003 0.000000 -18.035896 173.492775 53.827030 -182.607320
23.606899 38.132309 8.119797 2.896717 6.548370 0.101300 -0.128496 0.160404 6.566000 -4.408990 5.472101 14.530080 0.000001 0.000003 3.554812 1.849461 -8.552434 -0.029010 0.000001 0.000006 8.267999 4.983101 -3.718235 15.472439 0.000002 0.000004 2.173893 -0.223470 0.275858 -1.178820 2.057508 0.117605 5.946304 -16.941866 -4.530519 15.284382 4.957700 0.000003 0.000005 -18.998079 -14.000136 -88.866683 0.000000 -0.000001 -8.465502 -69.746361 -200.687118 -92.910189 -0.000001 0.000008 -14.594893 -592.922493 53.659773 -320.615473 -3.048500 -0.728797 6.604099 34.625005 5.900423 4.262656 -3.710291 0.000003 -0.000001 45.524355 -12.853201 69.268589 -0.000002 0.000006 -10.450893 213.449709 -81.684869 192.153671 0.000008 0.000001 -12.539200 387.683477 168.485877 -266.069582 2.442596 -0.601401 -2.767500 133.630001 -12.220598 97.452224 0.000000 0.000007 -17.033707 -163.082460 46.484181 173.194432 -0.000007 -0.000000 -19.318806 -139.081762 123.057210 395.151360 -3.126195 -0.601399 -2.283501 -133.433278 -22.204515 -104.252688 -0.000005 -0.000001 -16.919388 319.676786 -60.751903 -209.002300 0.000001 -0.000004 -18.035894 173.716094 53.832433 -182.694378
23.580999 38.139305 8.121002 2.904408 6.446022 -0.141485 -0.128503 0.160393 6.566006 -4.425941 5.565444 14.629044 -0.000004 -0.000005 3.554807 1.413940 -8.542513 -0.123296 -0.000002 0.000002 8.267996 6.077294 -3.567064 16.234759 0.000002 0.000003 2.173900 -0.056164 0.149858 -0.857552 2.057506 0.117602 5.946302 -17.171541 -4.460378 15.651170 4.957695 0.000010 0.000007 -18.926966 -14.207908 -88.803442 0.000003 0.000004 -8.465498 -70.778990 -201.696347 -92.973519 0.000006 0.000008 -14.594900 -593.148709 54.094767 -317.179724 -3.048500 -0.728798 6.604096 34.558735 6.099277 4.530087 -3.710294 -0.000004 0.000000 45.835306 -11.665355 71.574399 -0.000002 0.000013 -10.450901 209.418326 -81.779740 187.472273 0.000007 -0.000000 -12.539203 384.477851 167.630450 -262.616129 2.442593 -0.601404 -2.767499 133.622474 -12.152406 97.187568 -0.000002 -0.000001 -17.033709 -163.076190 46.437712 173.179378 -0.000003 -0.000000 -19.318794 -139.145256 123.035257 395.193653 -3.126200 -0.601405 -2.283497 -133.418415 -22.283538 -104.404837 -0.000002 -0.000000 -16.919399 320.180062 -60.878446 -208.746960 0.000001 0.000002 -18.035896 173.946012 53.836979 -182.781668
23.554901 38.145500 8.122101 2.911655 6.348370 -0.389491 -0.128495 0.160400 6.565999 -4.444074 5.669364 14.716701 -0.000003 0.000008 3.554810 0.944259 -8.535231 -0.227778 0.000004 0.000002 8.268000 7.151073 -3.416238 16.948408 0.000001 0.000002 2.173889 0.115810 0.022443 -0.523849 2.057507 0.117598 5.946303 -17.425831 -4.375330 15.981791 4.957694 0.000006 -0.000004 -18.855910 -14.390608 -88.739969 -0.000006 0.000005 -8.465507 -71.925273 -202.651262 -92.858054 -0.000000 0.000005 -14.594899 -593.550761 54.543907 -313.489318 -3.048498 -0.728803 6.604099 34.461112 6.260873 4.736440 -3.710303 -0.000005 0.000001 46.044043 -10.398122 73.984445 -0.000001 0.000002 -10.450898 207.424813 -81.631593 184.827924 0.000010 -0.000000 -12.539198 381.489315 166.541035 -259.855640 2.442599 -0.601398 -2.767504 133.615685 -12.081892 96.925193 -0.000001 -0.000003 -17.033709 -163.070015 46.391888 173.167794 -0.000001 0.000001 -19.318804 -139.212082 123.012431 395.238486 -3.126194 -0.601407 -2.283502 -133.406954 -22.364495 -104.563209 -0.000002 -0.000003 -16.919390 320.697954 -61.006184 -208.476361 -0.000001 -0.000004 -18.035898 174.183744 53.840025 -182.866895
23.528801 38.150803 8.123005 2.924930 6.260705 -0.566668 -0.128496 0.160402 6.566010 -4.462271 5.785811 14.716951 -0.000002 -0.000003 3.554804 0.436833 -8.538947 -0.342880 -0.000003 -0.000004 8.267996 8.200806 -3.264089 17.601263 0.000001 0.000001 2.173898 0.291082 -0.102804 -0.177578 2.057503 0.117591 5.946306 -17.700070 -4.269901 16.269283 4.957697 0.000008 0.000002 -18.607462 -14.551015 -88.718372 -0.000006 0.000003 -8.465505 -73.247611 -203.687251 -92.421544 -0.000002 -0.000000 -14.594897 -594.474093 54.965490 -309.533682 -3.048503 -0.728809 6.604101 34.328264 6.381703 4.875272 -3.710299 -0.000010 0.000001 46.122802 -9.048500 76.479103 -0.000007 0.000008 -10.450901 205.335758 -81.266684 182.298828 0.000003 -0.000004 -12.539197 378.433598 165.691100 -255.118111 2.442599 -0.601395 -2.767500 133.615740 -12.062042 96.724030 -0.000002 0.000000 -17.033710 -163.063007 46.346877 173.159734 -0.000004 -0.000002 -19.318798 -139.282201 122.988320 395.286079 -3.126195 -0.601402 -2.283498 -133.384975 -22.388641 -104.673148 -0.000001 -0.000002 -16.919397 321.232676 -61.135036 -208.187540 0.000000 -0.000002 -18.035896 174.430874 53.840964 -182.948188
23.502598 38.155209 8.123703 2.925611 6.173171 -0.895297 -0.128499 0.160396 6.566002 -4.485165 5.907898 14.855609 -0.000001 -0.000001 3.554805 -0.110639 -8.549988 -0.469458 -0.000000 0.000005 8.267997 9.221828 -3.120210 18.184233 0.000002 0.000000 2.173897 0.468200 -0.222936 0.180325 2.057506 0.117603 5.946305 -17.990158 -4.149710 16.505239 4.957698 0.000001 0.000003 -18.528577 -14.672153 -88.641813 0.000003 0.000001 -8.465504 -74.597666 -204.529550 -91.967814 -0.000004 -0.000007 -14.594900 -595.537308 55.259717 -304.980186 -3.048500 -0.728799 6.604104 34.157168 6.451231 4.948394 -3.710296 -0.000000 -0.000001 46.071907 -7.634536 79.034004 -0.000001 0.000011 -10.450897 204.436059 -80.650662 180.955781 0.000007 -0.000007 -12.539202 375.645296 164.996934 -250.961477 2.442594 -0.601403 -2.767509 133.606696 -11.938097 96.419499 -0.000000 0.000003 -17.033709 -163.055112 46.303174 173.155718 -0.000001 0.000001 -19.318806 -139.356623 122.962530 395.337551 -3.126196 -0.601404 -2.283503 -133.394687 -22.526305 -104.891830 -0.000001 -0.000005 -16.919397 321.785839 -61.264898 -207.877873 0.000002 -0.000001 -18.035896 174.688044 53.838905 -183.022391
23.476299 38.158604 8.124203 2.932552 6.098549 -1.150659 -0.128504 0.160398 6.566000 -4.508223 6.040277 14.903205 -0.000001 0.000002 3.554806 -0.728803 -8.564540 -0.636718 0.000001 0.000005 8.267998 10.238576 -2.988679 18.714131 0.000000 0.000001 2.173901 0.645915 -0.334972 0.546803 2.057503 0.117601 5.946304 -18.363986 -3.974368 16.662545 4.957697 0.000003 0.000004 -18.363903 -14.845541 -88.545869 0.000001 -0.000003 -8.465500 -76.023714 -205.312440 -91.376859 -0.000001 -0.000000 -14.594900 -597.030442 55.400911 -300.033599 -3.048503 -0.728802 6.604102 34.161365 6.402338 4.601187 -3.710294 0.000002 -0.000001 45.735384 -5.865296 81.813830 0.000000 0.000007 -10.450896 203.896897 -79.869889 180.129423 0.000007 0.000005 -12.539196 373.008105 164.397408 -246.619662 2.442591 -0.601399 -2.767502 133.604989 -11.866007 96.182089 -0.000001 -0.000004 -17.033701 -163.046369 46.261144 173.156292 -0.000001 -0.000001 -19.318804 -139.435348 122.934690 395.393176 -3.126202 -0.601401 -2.283501 -133.394237 -22.604677 -105.059012 -0.000002 -0.000003 -16.919394 322.358073 -61.395730 -207.545379 0.000002 -0.000003 -18.035900 174.956006 53.833365 -183.087537
